<svg width="422" height="382" viewBox="0 0 422 382" fill="none" xmlns="http://www.w3.org/2000/svg">
<path d="M364.271 94.0844V47.8231C364.271 45.6334 363.403 43.5335 361.858 41.9852C360.313 40.4369 358.218 39.567 356.033 39.567H352.196H83.2076V31.3798C83.2076 31.2353 83.242 31.0977 83.242 30.9601V8.58628C83.242 3.84594 80.0155 0 76.034 0H7.20799C3.22643 0 0 3.84594 0 8.58628V39.5464L44.312 361.153H63.8765L219.394 251.651L374.911 142.148L364.271 94.0844Z" fill="#232D3B"/>
<path d="M394.716 62.6083H70.906C55.8735 62.6083 43.6873 74.8217 43.6873 89.8876V354.562C43.6873 369.628 55.8735 381.842 70.906 381.842H394.716C409.749 381.842 421.935 369.628 421.935 354.562V89.8876C421.935 74.8217 409.749 62.6083 394.716 62.6083Z" fill="#204362"/>
<path d="M232.811 148.554V302.914" stroke="white" stroke-width="33" stroke-miterlimit="10"/>
<path d="M155.802 225.734H309.82" stroke="white" stroke-width="33" stroke-miterlimit="10"/>
</svg>
